<svg width="16" height="56" viewBox="0 0 16 56" fill="none" xmlns="http://www.w3.org/2000/svg">
<line x1="8" y1="48" x2="8" y2="7" stroke="#03D69D" stroke-width="2"/>
<circle cx="8" cy="8" r="8" fill="#03D69D"/>
<path d="M11.8131 5.22024C11.8723 5.28988 11.9193 5.37261 11.9514 5.46368C11.9835 5.55476 12 5.6524 12 5.751C12 5.84961 11.9835 5.94725 11.9514 6.03833C11.9193 6.1294 11.8723 6.21213 11.8131 6.28177L7.99597 10.7798C7.93688 10.8496 7.86667 10.905 7.78938 10.9428C7.71209 10.9805 7.62923 11 7.54555 11C7.46187 11 7.37901 10.9805 7.30172 10.9428C7.22443 10.905 7.15423 10.8496 7.09513 10.7798L5.18657 8.53076C5.12742 8.46106 5.0805 8.37832 5.04849 8.28725C5.01648 8.19618 5 8.09857 5 8C5 7.90143 5.01648 7.80382 5.04849 7.71275C5.0805 7.62168 5.12742 7.53894 5.18657 7.46924C5.24572 7.39954 5.31594 7.34425 5.39322 7.30652C5.47051 7.2688 5.55334 7.24939 5.63699 7.24939C5.72064 7.24939 5.80347 7.2688 5.88076 7.30652C5.95804 7.34425 6.02826 7.39954 6.08741 7.46924L7.54555 9.18897L10.9123 5.22024C10.9714 5.15043 11.0416 5.09504 11.1188 5.05725C11.1961 5.01945 11.279 5 11.3627 5C11.4464 5 11.5292 5.01945 11.6065 5.05725C11.6838 5.09504 11.754 5.15043 11.8131 5.22024Z" fill="white"/>
<circle cx="8" cy="48" r="8" fill="#03D69D"/>
<path d="M11.8131 45.2202C11.8723 45.2899 11.9193 45.3726 11.9514 45.4637C11.9835 45.5548 12 45.6524 12 45.751C12 45.8496 11.9835 45.9473 11.9514 46.0383C11.9193 46.1294 11.8723 46.2121 11.8131 46.2818L7.99597 50.7798C7.93688 50.8496 7.86667 50.905 7.78938 50.9428C7.71209 50.9805 7.62923 51 7.54555 51C7.46187 51 7.37901 50.9805 7.30172 50.9428C7.22443 50.905 7.15423 50.8496 7.09513 50.7798L5.18657 48.5308C5.12742 48.4611 5.0805 48.3783 5.04849 48.2872C5.01648 48.1962 5 48.0986 5 48C5 47.9014 5.01648 47.8038 5.04849 47.7128C5.0805 47.6217 5.12742 47.5389 5.18657 47.4692C5.24572 47.3995 5.31594 47.3442 5.39322 47.3065C5.47051 47.2688 5.55334 47.2494 5.63699 47.2494C5.72064 47.2494 5.80347 47.2688 5.88076 47.3065C5.95804 47.3442 6.02826 47.3995 6.08741 47.4692L7.54555 49.189L10.9123 45.2202C10.9714 45.1504 11.0416 45.095 11.1188 45.0572C11.1961 45.0195 11.279 45 11.3627 45C11.4464 45 11.5292 45.0195 11.6065 45.0572C11.6838 45.095 11.754 45.1504 11.8131 45.2202V45.2202Z" fill="white"/>
</svg>
